<svg xmlns="http://www.w3.org/2000/svg" xmlns:xlink="http://www.w3.org/1999/xlink" width="1200" height="650" version="1.1" viewBox="0 0 1200 650"><title>dockerfile</title><defs><linearGradient id="linearGradient-1" x1="-23.928%" x2="77.184%" y1="-13.4%" y2="73.4%"><stop offset="0%" stop-color="#FFF"/><stop offset="100%" stop-color="#B3D1EA"/></linearGradient><linearGradient id="linearGradient-2" x1="-21.1%" x2="38.8%" y1="33.588%" y2="47.414%"><stop offset="0%" stop-color="#428CCB"/><stop offset="100%" stop-color="#214666"/></linearGradient><linearGradient id="linearGradient-3" x1="0%" x2="100%" y1="50%" y2="50%"><stop offset="0%" stop-color="#B3D1EA"/><stop offset="100%" stop-color="#428CCB"/></linearGradient><linearGradient id="linearGradient-4" x1="-54.2%" x2="317%" y1="-28.398%" y2="250.844%"><stop offset="0%" stop-color="#428CCB"/><stop offset="100%" stop-color="#214666"/></linearGradient><linearGradient id="linearGradient-5" x1="22.6%" x2="393.8%" y1="29.314%" y2="308.63%"><stop offset="0%" stop-color="#428CCB"/><stop offset="100%" stop-color="#214666"/></linearGradient><linearGradient id="linearGradient-6" x1="-107.6%" x2="263.7%" y1="-68.586%" y2="210.755%"><stop offset="0%" stop-color="#428CCB"/><stop offset="100%" stop-color="#214666"/></linearGradient><linearGradient id="linearGradient-7" x1="-15.9%" x2="355.4%" y1=".408%" y2="279.749%"><stop offset="0%" stop-color="#428CCB"/><stop offset="100%" stop-color="#214666"/></linearGradient><linearGradient id="linearGradient-8" x1="-80.9%" x2="290.4%" y1="-48.485%" y2="230.836%"><stop offset="0%" stop-color="#428CCB"/><stop offset="100%" stop-color="#214666"/></linearGradient><linearGradient id="linearGradient-9" x1="-146%" x2="225.3%" y1="-97.49%" y2="181.851%"><stop offset="0%" stop-color="#428CCB"/><stop offset="100%" stop-color="#214666"/></linearGradient><linearGradient id="linearGradient-10" x1="-184.4%" x2="186.9%" y1="-126.423%" y2="152.963%"><stop offset="0%" stop-color="#428CCB"/><stop offset="100%" stop-color="#214666"/></linearGradient><linearGradient id="linearGradient-11" x1="-119.3%" x2="251.9%" y1="-77.387%" y2="201.934%"><stop offset="0%" stop-color="#428CCB"/><stop offset="100%" stop-color="#214666"/></linearGradient><linearGradient id="linearGradient-12" x1="-42.5%" x2="328.8%" y1="-19.587%" y2="259.75%"><stop offset="0%" stop-color="#428CCB"/><stop offset="100%" stop-color="#214666"/></linearGradient></defs><g id="dockerfile" fill="none" fill-rule="evenodd" stroke="none" stroke-width="1"><rect width="1200" height="650" x="0" y="0" fill="#FEFEFE"/><rect id="Rectangle" width="256" height="346" x="47" y="143" fill="#FEFEFE" stroke="#000"/><rect id="Rectangle-Copy" width="256" height="346" x="472" y="143" fill="#FEFEFE" stroke="#000"/><text id="FROM-image_repo" fill="#171717" font-family="LucidaGrande-Bold, Lucida Grande" font-size="8" font-weight="bold"><tspan x="57.721" y="159">FROM </tspan> <tspan x="86.955" y="159" font-family="LucidaGrande, Lucida Grande" font-weight="normal">image_repo</tspan></text><text id="WORKDIR-some_dir" fill="#171717" font-family="LucidaGrande-Bold, Lucida Grande" font-size="8" font-weight="bold"><tspan x="57.328" y="185">WORKDIR </tspan> <tspan x="102.133" y="185" font-family="LucidaGrande, Lucida Grande" font-weight="normal">some_dir</tspan></text><text id="RUN-command_one" fill="#171717" font-family="LucidaGrande-Bold, Lucida Grande" font-size="8" font-weight="bold"><tspan x="57.732" y="206">RUN </tspan> <tspan x="80.564" y="206" font-family="LucidaGrande, Lucida Grande" font-weight="normal">command_one</tspan></text><text id="RUN-command_two" fill="#171717" font-family="LucidaGrande-Bold, Lucida Grande" font-size="8" font-weight="bold"><tspan x="57.865" y="218">RUN </tspan> <tspan x="80.697" y="218" font-family="LucidaGrande, Lucida Grande" font-weight="normal">command_two</tspan></text><text id="RUN-command_three" fill="#171717" font-family="LucidaGrande-Bold, Lucida Grande" font-size="8" font-weight="bold"><tspan x="57.828" y="230">RUN </tspan> <tspan x="80.66" y="230" font-family="LucidaGrande, Lucida Grande" font-weight="normal">command_three</tspan></text><text id="RUN-command_four" fill="#171717" font-family="LucidaGrande-Bold, Lucida Grande" font-size="8" font-weight="bold"><tspan x="57.854" y="242">RUN </tspan> <tspan x="80.686" y="242" font-family="LucidaGrande, Lucida Grande" font-weight="normal">command_four</tspan></text><text id="ENTRYPOINT-[‘some’," fill="#171717" font-family="LucidaGrande-Bold, Lucida Grande" font-size="8" font-weight="bold"><tspan x="57.854" y="262">ENTRYPOINT </tspan> <tspan x="113.787" y="262" font-family="LucidaGrande, Lucida Grande" font-weight="normal"> [‘some’, ‘some_other’]</tspan></text><text id="Dockerfile" fill="#171717" font-family="LucidaGrande-Bold, Lucida Grande" font-size="38" font-weight="bold"><tspan x="75.205" y="548">Dockerfile</tspan></text><text id="Docker-Image" fill="#171717" font-family="LucidaGrande-Bold, Lucida Grande" font-size="32" font-weight="bold"><tspan x="486.375" y="548">Docker Image</tspan></text><text id="Docker-Container" fill="#171717" font-family="LucidaGrande-Bold, Lucida Grande" font-size="32" font-weight="bold"><tspan x="870.156" y="548">Docker Container</tspan></text><g id="Group" transform="translate(316.000000, 315.500000)"><path id="Path-15" fill="#121212" fill-rule="nonzero" d="M122,-6.5 L136,0.5 L122,7.5 L122,1.5 L0,1.5 L0,-0.5 L122,-0.5 L122,-6.5 Z"/><text id="build" fill="#171717" font-family="LucidaGrande, Lucida Grande" font-size="28" font-weight="normal"><tspan x="33.595" y="43.5">build</tspan></text></g><g id="Group-Copy" transform="translate(741.000000, 315.500000)"><path id="Path-15" fill="#121212" fill-rule="nonzero" d="M122,-6.5 L136,0.5 L122,7.5 L122,1.5 L0,1.5 L0,-0.5 L122,-0.5 L122,-6.5 Z"/><text id="run" fill="#171717" font-family="LucidaGrande, Lucida Grande" font-size="28" font-weight="normal"><tspan x="44.895" y="43.5">run</tspan></text></g><g id="docker" fill="#2396ED" fill-rule="nonzero" transform="translate(500.000000, 239.000000)"><path id="Shape" d="M194.892317,54.9499323 C190.411208,51.8322059 180.142001,50.6630584 172.113348,52.2219214 C171.179784,44.4276049 166.885388,37.6075778 159.416873,31.5669825 L155.122478,28.4492558 L152.135072,32.9309878 C148.400814,38.7767253 146.533686,46.9607578 147.093824,54.7550746 C147.280537,57.4830855 148.214102,62.354533 151.014795,66.6414075 C148.400814,68.2002709 142.986142,70.1488498 135.891053,70.1488498 L0.897653225,70.1488498 L0.52422749,71.7077133 C-0.78276256,79.5020292 -0.78276256,103.859269 14.5276921,122.56563 C26.1038896,136.790257 43.281473,144 65.8737295,144 C114.792499,144 151.014795,120.422192 168.005665,77.7483084 C174.727328,77.9431666 189.104218,77.7483084 196.38602,63.1339651 C196.572733,62.7442491 196.946158,61.9648171 198.253149,59.0419484 L199,57.4830855 L194.892317,54.9499323 L194.892317,54.9499323 Z M108.817688,0 L88.2792723,0 L88.2792723,19.4857916 L108.817688,19.4857916 L108.817688,0 L108.817688,0 Z M108.817688,23.3829499 L88.2792723,23.3829499 L88.2792723,42.8687416 L108.817688,42.8687416 L108.817688,23.3829499 L108.817688,23.3829499 Z M84.5450155,23.3829499 L64.0066006,23.3829499 L64.0066006,42.8687416 L84.5450155,42.8687416 L84.5450155,23.3829499 L84.5450155,23.3829499 Z M60.2723437,23.3829499 L39.7339287,23.3829499 L39.7339287,42.8687416 L60.2723437,42.8687416 L60.2723437,23.3829499 L60.2723437,23.3829499 Z M35.9996713,46.7658998 L15.4612565,46.7658998 L15.4612565,66.2516915 L35.9996713,66.2516915 L35.9996713,46.7658998 L35.9996713,46.7658998 Z M60.2723437,46.7658998 L39.7339287,46.7658998 L39.7339287,66.2516915 L60.2723437,66.2516915 L60.2723437,46.7658998 L60.2723437,46.7658998 Z M84.5450155,46.7658998 L64.0066006,46.7658998 L64.0066006,66.2516915 L84.5450155,66.2516915 L84.5450155,46.7658998 L84.5450155,46.7658998 Z M108.817688,46.7658998 L88.2792723,46.7658998 L88.2792723,66.2516915 L108.817688,66.2516915 L108.817688,46.7658998 L108.817688,46.7658998 Z M133.09036,46.7658998 L112.551944,46.7658998 L112.551944,66.2516915 L133.09036,66.2516915 L133.09036,46.7658998 L133.09036,46.7658998 Z"/></g><text id="Image" fill="#171717" font-family="LucidaGrande, Lucida Grande" font-size="28" font-weight="normal"><tspan x="558.136" y="193">Image</tspan></text><g id="ucp-icon-medium" fill-rule="nonzero" transform="translate(890.000000, 172.000000)"><polygon id="Path" fill="url(#linearGradient-1)" points="246 213.252 246 73.748 124.179 4 4 73.748 4 213.252 124.179 283" opacity=".4"/><polygon id="Path" fill="url(#linearGradient-2)" points="227 191.507 124.353 251 21 191.489 123.648 132"/><polygon id="Path" fill="url(#linearGradient-3)" points="227 157.509 124.353 217 21 157.49 123.648 98"/><polygon id="Path" fill="url(#linearGradient-4)" points="153 81 123.597 98 94 81 123.403 64"/><polygon id="Path" fill="url(#linearGradient-5)" points="80 123 50.598 140 21 123 50.403 106"/><polygon id="Path" fill="url(#linearGradient-6)" points="153 166 123.597 183 94 166 123.403 149"/><polygon id="Path" fill="url(#linearGradient-7)" points="117 102 87.597 119 58 102 87.403 85"/><polygon id="Path" fill="url(#linearGradient-8)" points="153 122.998 123.592 140 94 123.002 123.407 106"/><polygon id="Path" fill="url(#linearGradient-9)" points="190 144 160.597 161 131 144 160.403 127"/><polygon id="Path" fill="url(#linearGradient-10)" points="227 123.002 197.598 140 168 123.002 197.403 106"/><polygon id="Path" fill="url(#linearGradient-11)" points="190 101.998 160.592 119 131 102.002 160.407 85"/><polygon id="Path" fill="url(#linearGradient-12)" points="117 143.998 87.591 161 58 144.002 87.407 127"/><path id="Shape" fill="#FFF" d="M123.667632,288 L0,215.996637 L0,72.0069039 L123.667632,0 L249,71.9913259 L249,216.008674 L123.667632,288 Z M7.78149299,211.507357 L123.693787,279.001615 L241.214973,211.492488 L241.214973,76.5082205 L123.693787,8.99838467 L7.78149299,76.4926425 L7.78149299,211.507357 Z"/><polygon id="Path" fill="#FFF" points="123.545 149 3 78.296 6.943 71.555 123.576 139.966 243.102 71 247 77.768"/><rect id="Rectangle" width="8" height="141" x="120" y="143" fill="#FFF"/></g></g></svg>