<svg xmlns="http://www.w3.org/2000/svg" xmlns:xlink="http://www.w3.org/1999/xlink" width="1500" height="500" version="1.1" viewBox="0 0 1500 500"><title>Artboard Copy 65</title><defs><radialGradient id="radialGradient-1" cx="50%" cy="50%" r="70.958%" fx="50%" fy="50%" gradientTransform="translate(0.500000,0.500000),scale(0.333333,1.000000),rotate(6.708436),translate(-0.500000,-0.500000)"><stop offset="0%" stop-color="#000896"/><stop offset="100%" stop-color="#020031"/></radialGradient><rect id="path-2" width="1500" height="500" x="0" y="0"/><filter id="filter-3" width="100.5%" height="101.6%" x="-.3%" y="-.4%" filterUnits="objectBoundingBox"><feGaussianBlur in="SourceGraphic" stdDeviation="0"/></filter><filter id="filter-4" width="100.9%" height="102.8%" x="-.5%" y="-1%" filterUnits="objectBoundingBox"><feOffset dx="0" dy="2" in="SourceAlpha" result="shadowOffsetOuter1"/><feGaussianBlur in="shadowOffsetOuter1" result="shadowBlurOuter1" stdDeviation="2"/><feColorMatrix in="shadowBlurOuter1" type="matrix" values="0 0 0 0 0 0 0 0 0 0 0 0 0 0 0 0 0 0 0.5 0"/></filter><radialGradient id="radialGradient-5" cx="50%" cy="50%" r="70.958%" fx="50%" fy="50%" gradientTransform="translate(0.500000,0.500000),scale(0.333333,1.000000),rotate(6.708436),translate(-0.500000,-0.500000)"><stop offset="0%" stop-color="#000896"/><stop offset="100%" stop-color="#020031" stop-opacity=".929"/></radialGradient><rect id="path-6" width="1500" height="500" x="0" y="0"/><filter id="filter-7" width="120.5%" height="161.6%" x="-10.3%" y="-30.4%" filterUnits="objectBoundingBox"><feGaussianBlur in="SourceGraphic" stdDeviation="50"/></filter><filter id="filter-8" width="120.9%" height="162.8%" x="-10.5%" y="-31%" filterUnits="objectBoundingBox"><feOffset dx="0" dy="2" in="SourceAlpha" result="shadowOffsetOuter1"/><feGaussianBlur in="shadowOffsetOuter1" result="shadowBlurOuter1" stdDeviation="2"/><feComposite in="shadowBlurOuter1" in2="SourceAlpha" operator="out" result="shadowBlurOuter1"/><feColorMatrix in="shadowBlurOuter1" type="matrix" values="0 0 0 0 0 0 0 0 0 0 0 0 0 0 0 0 0 0 0.5 0"/></filter></defs><g id="Artboard-Copy-65" fill="none" fill-rule="evenodd" stroke="none" stroke-width="1"><rect width="1500" height="500" x="0" y="0" fill="#FEFEFE"/><g id="Rectangle-Copy-8" filter="url(#filter-3)"><use fill="#000" fill-opacity="1" filter="url(#filter-4)" xlink:href="#path-2"/><use fill="url(#radialGradient-1)" fill-rule="evenodd" xlink:href="#path-2"/></g><g id="Group" opacity=".204" transform="translate(-13.000000, 0.000000)"><circle id="Ellipse_184" cx="14" cy="188" r="14" fill="#FEFEFE" fill-rule="nonzero"/><polygon id="Rectangle_858" fill="#FEFEFE" fill-rule="nonzero" points="115.057 130.173 116.814 130.174 116.927 364.81 115.171 364.809" transform="translate(115.992334, 247.491860) rotate(-60.000000) translate(-115.992334, -247.491860)"/><polygon id="Rectangle_860" fill="#FEFEFE" fill-rule="nonzero" points="275.16 220.12 276.917 220.119 276.857 343.15 275.101 343.15" transform="translate(276.008777, 281.634886) rotate(60.000000) translate(-276.008777, -281.634886)"/><polygon id="Rectangle_861" fill="#FEFEFE" fill-rule="nonzero" points="298.148 27.459 299.906 27.46 299.993 206.632 298.235 206.631" transform="translate(299.070464, 117.045794) rotate(150.000000) translate(-299.070464, -117.045794)"/><polygon id="Rectangle_862" fill="#FEFEFE" fill-rule="nonzero" points="495.884 181.224 497.64 181.225 497.716 382.494 495.959 382.494" transform="translate(496.799674, 281.859181) rotate(111.000000) translate(-496.799674, -281.859181)"/><polygon id="Rectangle_863" fill="#FEFEFE" fill-rule="nonzero" points="632.687 120.937 634.445 120.937 634.461 281.621 632.703 281.621" transform="translate(633.574201, 201.278793) rotate(174.870000) translate(-633.574201, -201.278793)"/><polygon id="Rectangle_864" fill="#FEFEFE" fill-rule="nonzero" points="747.984 164.68 749.741 164.679 749.651 325.451 747.894 325.452" transform="translate(748.817649, 245.065477) rotate(-135.000000) translate(-748.817649, -245.065477)"/><polygon id="Rectangle_865" fill="#FEFEFE" fill-rule="nonzero" points="886.848 26.779 888.605 26.778 888.56 120.756 886.802 120.756" transform="translate(887.703543, 73.767256) rotate(-150.000000) translate(-887.703543, -73.767256)"/><polygon id="Rectangle_866" fill="#FEFEFE" fill-rule="nonzero" points="1176.187 208.432 1177.942 208.432 1177.9 336.568 1176.145 336.568" transform="translate(1177.043403, 272.500000) rotate(-135.000000) translate(-1177.043403, -272.500000)"/><ellipse id="Ellipse_194" cx="1092.188" cy="355.652" fill="#FEFEFE" fill-rule="nonzero" rx="14.047" ry="14.038"/><ellipse id="Oval" cx="1092.188" cy="355.652" rx="42.141" ry="42.113"/><ellipse id="Oval" cx="1092.188" cy="355.652" stroke="#FEFEFE" stroke-width="2" rx="41.263" ry="41.236"/><ellipse id="Oval" cx="1092.188" cy="355.652" rx="56.188" ry="56.151"/><ellipse id="Oval" cx="1092.188" cy="355.652" stroke="#FEFEFE" stroke-width="2" rx="55.31" ry="55.274"/><polygon id="Rectangle_866" fill="#FEFEFE" fill-rule="nonzero" points="1270.249 118.516 1271.94 118.514 1271.775 241.971 1270.084 241.973" transform="translate(1271.011910, 180.243561) scale(-1, -1) rotate(-135.000000) translate(-1271.011910, -180.243561)"/><ellipse id="Ellipse_194" cx="1353.673" cy="100.559" fill="#FEFEFE" fill-rule="nonzero" rx="13.628" ry="13.61" transform="translate(1353.672914, 100.558838) scale(-1, -1) translate(-1353.672914, -100.558838)"/><ellipse id="Oval" cx="1352.794" cy="99.681" rx="40.884" ry="40.829" transform="translate(1352.793687, 99.680789) scale(-1, -1) translate(-1352.793687, -99.680789)"/><ellipse id="Oval" cx="1352.794" cy="99.681" stroke="#FEFEFE" stroke-width="2" rx="40.032" ry="39.979" transform="translate(1352.793687, 99.680789) scale(-1, -1) translate(-1352.793687, -99.680789)"/><ellipse id="Oval" cx="1353.673" cy="99.681" rx="54.072" ry="54" transform="translate(1353.672914, 99.680789) scale(-1, -1) translate(-1353.672914, -99.680789)"/><ellipse id="Oval" cx="1353.673" cy="99.681" stroke="#FEFEFE" stroke-width="2" rx="53.228" ry="53.156" transform="translate(1353.672914, 99.680789) scale(-1, -1) translate(-1353.672914, -99.680789)"/><polygon id="Rectangle_868" fill="#FEFEFE" fill-rule="nonzero" points="1466.843 185.865 1468.601 185.864 1468.516 359.766 1466.759 359.767" transform="translate(1467.679549, 272.815636) rotate(-150.000000) translate(-1467.679549, -272.815636)"/><polygon id="Rectangle_867" fill="#FEFEFE" fill-rule="nonzero" points="1199.887 64.635 1201.644 64.635 1201.644 228.968 1199.887 228.968" transform="translate(1200.765527, 146.801507) rotate(165.020000) translate(-1200.765527, -146.801507)"/><circle id="Ellipse_198" cx="1179.061" cy="67.061" r="14.061" fill="#FEFEFE" fill-rule="nonzero"/><polygon id="Rectangle_867" fill="#FEFEFE" fill-rule="nonzero" points="1244.356 225.032 1246.113 225.032 1246.113 389.365 1244.356 389.365" transform="translate(1245.234473, 307.198493) scale(-1, -1) rotate(165.020000) translate(-1245.234473, -307.198493)"/><circle id="Ellipse_198" cx="1266.939" cy="386.939" r="14.061" fill="#FEFEFE" fill-rule="nonzero" transform="translate(1266.939394, 386.939394) scale(-1, -1) translate(-1266.939394, -386.939394)"/><polygon id="Rectangle_859" fill="#FEFEFE" fill-rule="nonzero" points="170.474 292.748 172.231 292.747 172.133 491.245 170.376 491.246" transform="translate(171.303612, 391.996680) rotate(-149.000000) translate(-171.303612, -391.996680)"/><circle id="Ellipse_185" cx="115" cy="490" r="14" fill="#FEFEFE" fill-rule="nonzero"/><circle id="Oval" cx="364" cy="230" r="42"/><circle id="Oval" cx="364" cy="230" r="41.125" stroke="#FEFEFE" stroke-width="2"/><circle id="Oval" cx="645.5" cy="341.5" r="61.5"/><circle id="Oval" cx="645.5" cy="341.5" r="60.621" stroke="#FEFEFE" stroke-width="2"/><circle id="Oval" cx="620.5" cy="61.5" r="61.5"/><circle id="Oval" cx="620.5" cy="61.5" r="60.621" stroke="#FEFEFE" stroke-width="2"/><circle id="Oval" cx="839.5" cy="155.5" r="48.5"/><circle id="Oval" cx="839.5" cy="155.5" r="47.618" stroke="#FEFEFE" stroke-width="2"/><circle id="Ellipse_193" cx="840" cy="155" r="14" fill="#FEFEFE" fill-rule="nonzero"/><circle id="Ellipse_197" cx="1224" cy="227" r="14" fill="#FEFEFE" fill-rule="nonzero"/><circle id="Ellipse_199" cx="1423" cy="349" r="14" fill="#FEFEFE" fill-rule="nonzero"/><circle id="Ellipse_200" cx="1512" cy="198" r="14" fill="#FEFEFE" fill-rule="nonzero"/><circle id="Ellipse_198-Copy" cx="248" cy="29" r="14" fill="#FEFEFE" fill-rule="nonzero"/><circle id="Oval" cx="620.5" cy="61.5" r="24.5"/><circle id="Oval" cx="620.5" cy="61.5" r="23.625" stroke="#FEFEFE" stroke-width="2"/><circle id="Oval" cx="646" cy="342" r="28"/><circle id="Oval" cx="646" cy="342" r="27.125" stroke="#FEFEFE" stroke-width="2"/><circle id="Oval" cx="365" cy="230" r="28"/><circle id="Oval" cx="365" cy="230" r="27.125" stroke="#FEFEFE" stroke-width="2"/><circle id="Ellipse_198" cx="916" cy="25" r="14" fill="#FEFEFE" fill-rule="nonzero"/></g><g id="Rectangle-Copy-9" filter="url(#filter-7)"><use fill="#000" fill-opacity="1" filter="url(#filter-8)" xlink:href="#path-6"/><use fill="url(#radialGradient-5)" fill-opacity=".7" fill-rule="evenodd" xlink:href="#path-6"/></g><g id="Group-45" transform="translate(579.000000, 58.000000)"><g id="Group-41" stroke="#FEFEFE" stroke-linecap="round" stroke-linejoin="bevel" stroke-width="10"><g id="Group-40"><path id="Shape" d="M21.3905921,86.3683195 L42.7811843,74.0299881 L85.5623686,49.3533254 L171.124737,0 L171.124737,0 L256.687106,49.3533254 L299.46829,74.0299881 L320.858882,86.3683195 M342.249474,123.383314 L342.249474,148.059976 L342.249474,197.413302 L342.249474,296.119952 L256.687106,345.473278 L213.905921,370.149941 L192.515329,382.488272 M149.734145,382.488272 L128.343553,370.149941 L85.5623686,345.473278 L0,296.119952 L0,197.413302 L0,148.059976 L0,123.383314"/><path id="Shape-Copy-3" stroke-opacity=".4" d="M47.8500336,110.824277 L65.4607055,100.845462 L100.682049,80.887832 L171.124737,40.972572 L171.124737,40.972572 L241.567425,80.887832 L276.788769,100.845462 L294.399441,110.824277 M312.79865,140.235521 L312.79865,160.543285 L312.79865,201.158813 L312.79865,282.389868 L241.304579,323.005395 L205.557543,343.313159 L187.684026,353.467041 M154.565449,353.467041 L136.691931,343.313159 L100.944895,323.005395 L29.4508241,282.389868 L29.4508241,201.158813 L29.4508241,160.543285 L29.4508241,140.235521"/></g></g><path id="ic_fandogh" fill="#FFF" fill-rule="nonzero" d="M231.406137,158.09059 C231.405345,155.930981 230.952624,153.795461 230.077107,151.821458 C231.21278,151.351807 232.307506,150.788611 233.349999,150.137677 C239.894043,146.06771 243.702484,138.754599 243.286676,131.0569 C243.199732,128.791588 241.338867,127 239.072904,127 C236.806941,127 234.946076,128.791588 234.859132,131.0569 C235.251301,135.741831 233.058375,140.267815 229.139333,142.862005 C227.624374,143.829771 225.957394,144.53551 224.208257,144.949644 C221.670952,143.317942 218.716249,142.454867 215.699978,142.464359 C212.967397,142.466341 210.282008,143.177058 207.905898,144.527146 C193.755173,130.173916 173.175796,124.190656 153.539858,128.720732 C145.385086,130.652588 137.646637,134.043627 130.697924,138.730218 C129.540095,139.374306 128.467659,140.161252 127.505767,141.072599 L127.505767,141.072599 C122.27563,146.020415 121.117496,153.91006 124.704866,160.153376 C116.483028,168.907366 109.968319,179.121069 105.496029,190.26882 C101.598385,200.13897 99.3248979,210.575693 98.7639308,221.173342 C98.1735427,230.973462 98.9912951,240.807639 101.192206,250.375443 C99.1140195,253.083952 97.9914701,256.405044 98,259.819527 C98.0175086,265.492732 101.089167,270.716363 106.03729,273.487579 C110.985412,276.258794 117.042189,276.147579 121.885334,273.196574 C129.798453,275.098607 137.91189,276.039446 146.050089,276 C147.993951,276 150.012338,275.949028 152.080409,275.81855 C162.704534,275.254793 173.168546,272.982725 183.070418,269.08964 C194.257384,264.635741 204.508463,258.118976 213.290334,249.878386 C215.65869,251.22538 218.335266,251.93603 221.059573,251.941172 C225.692028,251.950466 230.089606,249.902045 233.06432,246.349281 L233.114003,246.349281 C239.077093,238.693775 243.314276,229.838322 245.534849,220.390477 C250.070905,200.609771 243.912399,179.897706 229.307014,165.813614 C230.684445,163.473387 231.409332,160.806408 231.406137,158.09059 L231.406137,158.09059 Z M214.017964,153 C217.881603,153.009915 221.006595,156.148304 221,160.011957 C220.993384,163.87561 217.857678,167.003294 213.994027,167 C210.130377,166.996701 207,163.86367 207,160.000011 C207.016474,156.134816 210.152741,153.009248 214.017964,153.005988 L214.017964,153 Z M139.024037,146.00184 C142.886838,146.015056 146.008786,149.154488 146,153.016852 C145.991177,156.879216 142.854949,160.004386 138.992129,160 C135.129309,159.995605 132.000194,156.863314 132.000172,153.00094 C131.98733,151.181766 132.695671,149.431569 133.970207,148.133303 C134.263617,147.911774 134.904328,147.39687 135.916291,146.708336 C136.877647,146.218971 137.945575,145.976195 139.024037,146.00184 Z M113.994075,267 C111.161252,266.99756 108.609174,265.287951 107.529029,262.669136 C106.448884,260.050321 107.053646,257.038654 109.06104,255.039837 C111.068434,253.04102 114.082662,252.449162 116.696825,253.540513 C119.310988,254.631863 121.009651,257.191241 121,260.024051 C120.97369,263.877503 117.847601,266.990234 113.994075,267 Z M179.346303,261.664448 C170.305452,265.203984 160.750701,267.286443 151.045007,267.832718 C143.072923,268.293788 135.073797,267.800881 127.220857,266.36467 C128.05227,264.438971 128.476131,262.364818 128.466239,260.270418 C128.452839,255.246268 125.996477,250.536296 121.867778,247.618141 C117.739078,244.699986 112.443894,243.931182 107.643459,245.552925 C106.213833,237.925314 105.714178,230.155224 106.155228,222.409574 C106.666397,212.768753 108.752505,203.273849 112.332321,194.294597 C116.389543,184.267123 122.302829,175.079054 129.767663,167.203553 C134.656508,169.902778 140.625063,169.825262 145.44079,167 C153.867644,170.496507 161.842691,174.977631 169.196443,180.348137 C177.10529,186.046004 184.241719,192.727563 190.430198,200.228473 C197.450953,208.776534 203.045,218.382824 207,228.682705 C205.438103,231.145813 204.611314,233.996285 204.615094,236.90501 C204.604937,239.555223 205.29397,242.162077 206.613932,244.467309 C198.681197,251.829714 189.431742,257.661826 179.340076,261.664448 L179.346303,261.664448 Z M220.982036,242 C217.118397,241.990085 213.993405,238.851696 214,234.988043 C214.006616,231.12439 217.142322,227.996706 221.005973,228 C224.869623,228.003299 228,231.13633 228,234.999989 C227.986803,238.869859 224.845935,242 220.976048,242 L220.982036,242 Z M237.852026,219.315856 C237.112553,222.629759 236.088841,225.870379 234.792805,229 C231.94163,224.472435 227.040668,221.736016 221.778877,221.73376 C219.529572,221.740912 217.307796,222.240691 215.262736,223.199536 C211.12607,212.948021 205.537055,203.376216 198.675637,194.792295 C192.114654,186.583129 184.542229,179.279034 176.147531,173.062478 C169.274018,167.918292 161.891313,163.528157 154.121137,159.964453 C155.180668,157.796097 155.731644,155.404639 155.730287,152.980093 C155.735877,147.758084 153.215582,142.872022 149,139.93218 C151.633279,138.860355 154.341086,137.991417 157.100818,137.33262 C164.475137,135.512342 172.171451,135.55749 179.524911,137.464164 C188.286979,139.951416 196.316133,144.609009 202.903481,151.025725 C201.612544,153.369239 200.935938,156.014887 200.939461,158.705389 C200.963075,167.439811 207.88763,174.506685 216.419121,174.503198 C219.060742,174.498074 221.65812,173.8085 223.96928,172.498718 C236.273494,184.546102 241.5336,202.300539 237.83979,219.315856 L237.852026,219.315856 Z"/></g></g></svg>